<svg width="20" height="20" viewBox="0 0 20 20" fill="none" xmlns="http://www.w3.org/2000/svg">
<path d="M15.785 4.63003C14.6921 4.11776 13.5358 3.75344 12.3467 3.54669C12.1843 3.84457 12.0372 4.15052 11.9059 4.46336C10.6428 4.27118 9.35803 4.27118 8.09502 4.46336C7.96209 4.15042 7.81328 3.84447 7.64919 3.54669C6.45918 3.75322 5.30203 4.11755 4.20835 4.63003C2.28357 7.48317 1.43641 10.9279 1.81835 14.3484C3.06177 15.2879 4.46211 15.9992 5.95419 16.4492C6.29641 15.9786 6.59752 15.4828 6.85752 14.9617C6.36391 14.7741 5.88811 14.5426 5.43585 14.27C5.5553 14.1811 5.67141 14.0892 5.78419 13.9942C7.09935 14.6275 8.5403 14.9564 10 14.9564C11.4597 14.9564 12.9007 14.6275 14.2159 13.9942C14.3303 14.0897 14.4464 14.1817 14.5642 14.27C14.1103 14.5434 13.6353 14.7745 13.1392 14.9634C13.3986 15.4833 13.7008 15.9809 14.0425 16.4509C15.5638 15.9798 16.9917 15.2481 18.2625 14.2884C18.6117 10.8767 17.7333 7.45232 15.785 4.63003ZM7.23169 12.3442C6.80789 12.3142 6.41293 12.1186 6.13222 11.7997C5.85152 11.4808 5.70763 11.0642 5.73169 10.64C5.70496 10.215 5.84786 9.7968 6.12905 9.47703C6.41024 9.15725 6.80677 8.96203 7.23169 8.93419C7.44247 8.9469 7.64865 9.00121 7.83834 9.09398C8.02803 9.18676 8.19748 9.31616 8.33692 9.47474C8.47636 9.63331 8.58303 9.81792 8.65079 10.0179C8.71854 10.2179 8.74604 10.4293 8.73169 10.64C8.75795 11.0647 8.61484 11.4825 8.3337 11.8019C8.05256 12.1214 7.65629 12.3163 7.23169 12.3442ZM12.7684 12.3442C12.3446 12.3142 11.9496 12.1186 11.6689 11.7997C11.3882 11.4808 11.2443 11.0642 11.2684 10.64C11.2416 10.215 11.3845 9.7968 11.6657 9.47703C11.9469 9.15725 12.3434 8.96203 12.7684 8.93419C12.9791 8.9469 13.1853 9.00121 13.375 9.09398C13.5647 9.18676 13.7341 9.31616 13.8736 9.47474C14.013 9.63331 14.1197 9.81792 14.1875 10.0179C14.2552 10.2179 14.2827 10.4293 14.2684 10.64C14.2946 11.0647 14.1515 11.4825 13.8704 11.8019C13.5892 12.1214 13.193 12.3163 12.7684 12.3442Z" fill="white"/>
</svg>
