<svg width="24" height="24" viewBox="0 0 24 24" fill="none" xmlns="http://www.w3.org/2000/svg">
<path fill-rule="evenodd" clip-rule="evenodd" d="M20.862 13.574C20.8939 13.3933 20.8759 13.2073 20.81 13.036C20.7442 12.8647 20.6329 12.7146 20.4881 12.6018C20.3433 12.489 20.1706 12.4178 19.9884 12.3958C19.8062 12.3738 19.6214 12.4019 19.454 12.477C18.3441 12.9752 17.109 13.1243 15.9124 12.9045C14.7158 12.6846 13.6144 12.1062 12.7541 11.2459C11.8938 10.3856 11.3154 9.28417 11.0955 8.0876C10.8757 6.89103 11.0247 5.65589 11.523 4.546C11.5984 4.37851 11.6266 4.19365 11.6048 4.0113C11.5829 3.82894 11.5117 3.656 11.3989 3.51108C11.2861 3.36617 11.1358 3.25476 10.9644 3.18884C10.793 3.12293 10.6068 3.10501 10.426 3.137C8.20841 3.52841 6.21812 4.73691 4.84798 6.52398C3.47784 8.31104 2.82741 10.5468 3.02506 12.79C3.22272 15.0331 4.25411 17.1207 5.91564 18.6407C7.57718 20.1606 9.74813 21.0024 12 21C14.1141 21.0002 16.1608 20.2561 17.7812 18.8983C19.4016 17.5404 20.4923 15.6555 20.862 13.574Z" fill="#343434"/>
</svg>
