<svg width="21" height="21" viewBox="0 0 21 21" fill="none" xmlns="http://www.w3.org/2000/svg">
<path d="M10.048 0C4.50149 0 0 4.50149 0 10.048C0 15.5944 4.50149 20.0959 10.048 20.0959C15.5944 20.0959 20.0959 15.5944 20.0959 10.048C20.0959 4.50149 15.5944 0 10.048 0ZM14.7102 6.83261C14.5595 8.42019 13.9064 12.2786 13.5748 14.0571C13.4341 14.8107 13.1528 15.0619 12.8915 15.092C12.3088 15.1423 11.8666 14.7102 11.304 14.3384C10.4197 13.7557 9.91734 13.3939 9.06326 12.8312C8.06851 12.1781 8.71158 11.8164 9.28432 11.2336C9.43504 11.0829 12.0073 8.74173 12.0576 8.53072C12.0645 8.49876 12.0636 8.46558 12.0548 8.43406C12.0461 8.40254 12.0298 8.37364 12.0073 8.34986C11.947 8.29962 11.8666 8.31971 11.7963 8.32976C11.7059 8.34986 10.2992 9.28432 7.55607 11.1331C7.15415 11.4044 6.79242 11.5451 6.47089 11.5351C6.10916 11.525 5.4259 11.3341 4.91345 11.1633C4.28043 10.9623 3.78808 10.8518 3.82827 10.5001C3.84837 10.3193 4.09957 10.1384 4.57182 9.94748C7.50583 8.67139 9.45513 7.82736 10.4298 7.42544C13.2231 6.25988 13.7959 6.05892 14.1777 6.05892C14.2581 6.05892 14.449 6.07902 14.5695 6.1795C14.67 6.25988 14.7002 6.37041 14.7102 6.45079C14.7002 6.51108 14.7203 6.69194 14.7102 6.83261Z" fill="white"/>
</svg>
